<svg version="1.1" id="Layer_1" xmlns="http://www.w3.org/2000/svg" xmlns:xlink="http://www.w3.org/1999/xlink" x="0px" y="0px"
	 width="100%" viewBox="0 0 554 539" enable-background="new 0 0 554 539" xml:space="preserve">
<path fill="#FFFFFF" opacity="1.000000" stroke="none" 
	d="
M300.000000,540.000000 
	C200.022751,540.000000 100.545486,540.000000 1.034116,540.000000 
	C1.034116,360.397156 1.034116,180.794296 1.034116,1.095720 
	C185.560608,1.095720 370.121277,1.095720 554.840942,1.095720 
	C554.840942,180.666550 554.840942,360.333252 554.840942,540.000000 
	C470.127594,540.000000 385.313812,540.000000 300.000000,540.000000 
M145.511719,487.209045 
	C141.058716,487.209045 136.605698,487.209045 132.160721,487.209045 
	C132.319000,485.409546 132.535950,484.091675 132.536316,482.773773 
	C132.552628,423.778076 132.582886,364.782379 132.505707,305.786774 
	C132.496552,298.789093 129.596069,293.216003 123.613243,289.027496 
	C118.440651,285.406219 113.012894,286.141998 107.253471,285.808716 
	C93.207756,284.995880 84.308990,292.364075 84.309067,306.284668 
	C84.309433,372.113190 84.531151,437.943146 84.105255,503.768921 
	C84.028381,515.649597 92.444275,525.299133 105.609375,525.208618 
	C170.434906,524.762573 235.265182,525.005859 300.093781,525.005798 
	C346.923676,525.005798 393.753632,525.026001 440.583435,524.957092 
	C443.499207,524.952820 446.682434,524.873169 449.280029,523.756104 
	C457.947510,520.028931 461.717133,513.025940 461.712708,503.673584 
	C461.675354,425.012665 461.691010,346.351776 461.690674,267.690857 
	C461.690674,265.781403 461.690643,263.871918 461.690643,260.674347 
	C472.521423,271.511963 482.368622,281.348907 492.195160,291.206390 
	C496.034241,295.057526 500.711700,296.768433 506.074036,296.797852 
	C508.898956,296.813324 511.726044,296.731781 514.548523,296.815643 
	C522.474670,297.051056 528.361450,293.365875 532.070679,286.735748 
	C535.253479,281.046570 532.853271,267.766602 528.542603,263.454346 
	C514.050781,248.957047 499.545898,234.472778 485.051758,219.977798 
	C420.829651,155.751938 356.626373,91.507195 292.325348,27.360437 
	C289.830139,24.871185 286.549713,21.897320 283.386505,21.572741 
	C270.696381,20.270607 259.103333,20.181334 248.402420,31.109146 
	C195.819473,84.807251 142.336105,137.623627 89.169815,190.750473 
	C65.003502,214.898880 40.921021,239.132202 16.608713,263.132690 
	C10.330183,269.330719 9.561368,278.645966 12.159850,284.552216 
	C15.952475,293.172729 24.167660,297.620575 33.041573,296.540863 
	C33.994900,296.424866 34.997993,296.038513 35.891296,296.215424 
	C43.463726,297.714905 49.350601,294.980865 54.666271,289.654205 
	C126.003906,218.169098 197.409546,146.751877 268.802826,75.322311 
	C270.032837,74.091667 271.318634,72.916779 272.568390,71.725388 
	C318.955505,118.066399 365.072784,164.094681 411.048309,210.264084 
	C412.514221,211.736130 413.124207,214.657074 413.126801,216.903732 
	C413.228485,305.230469 413.213165,393.557373 413.213074,481.884247 
	C413.213074,483.508118 413.213074,485.131989 413.213074,487.209045 
	C324.058258,487.209045 235.282791,487.209045 145.511719,487.209045 
z"/>
<path fill="#040404" opacity="1.000000" stroke="none" 
	d="
M146.009521,487.209045 
	C235.282791,487.209045 324.058258,487.209045 413.213074,487.209045 
	C413.213074,485.131989 413.213074,483.508118 413.213074,481.884247 
	C413.213165,393.557373 413.228485,305.230469 413.126801,216.903732 
	C413.124207,214.657074 412.514221,211.736130 411.048309,210.264084 
	C365.072784,164.094681 318.955505,118.066399 272.568390,71.725388 
	C271.318634,72.916779 270.032837,74.091667 268.802826,75.322311 
	C197.409546,146.751877 126.003906,218.169098 54.666271,289.654205 
	C49.350601,294.980865 43.463726,297.714905 35.891296,296.215424 
	C34.997993,296.038513 33.994900,296.424866 33.041573,296.540863 
	C24.167660,297.620575 15.952475,293.172729 12.159850,284.552216 
	C9.561368,278.645966 10.330183,269.330719 16.608713,263.132690 
	C40.921021,239.132202 65.003502,214.898880 89.169815,190.750473 
	C142.336105,137.623627 195.819473,84.807251 248.402420,31.109146 
	C259.103333,20.181334 270.696381,20.270607 283.386505,21.572741 
	C286.549713,21.897320 289.830139,24.871185 292.325348,27.360437 
	C356.626373,91.507195 420.829651,155.751938 485.051758,219.977798 
	C499.545898,234.472778 514.050781,248.957047 528.542603,263.454346 
	C532.853271,267.766602 535.253479,281.046570 532.070679,286.735748 
	C528.361450,293.365875 522.474670,297.051056 514.548523,296.815643 
	C511.726044,296.731781 508.898956,296.813324 506.074036,296.797852 
	C500.711700,296.768433 496.034241,295.057526 492.195160,291.206390 
	C482.368622,281.348907 472.521423,271.511963 461.690643,260.674347 
	C461.690643,263.871918 461.690674,265.781403 461.690674,267.690857 
	C461.691010,346.351776 461.675354,425.012665 461.712708,503.673584 
	C461.717133,513.025940 457.947510,520.028931 449.280029,523.756104 
	C446.682434,524.873169 443.499207,524.952820 440.583435,524.957092 
	C393.753632,525.026001 346.923676,525.005798 300.093781,525.005798 
	C235.265182,525.005859 170.434906,524.762573 105.609375,525.208618 
	C92.444275,525.299133 84.028381,515.649597 84.105255,503.768921 
	C84.531151,437.943146 84.309433,372.113190 84.309067,306.284668 
	C84.308990,292.364075 93.207756,284.995880 107.253471,285.808716 
	C113.012894,286.141998 118.440651,285.406219 123.613243,289.027496 
	C129.596069,293.216003 132.496552,298.789093 132.505707,305.786774 
	C132.582886,364.782379 132.552628,423.778076 132.536316,482.773773 
	C132.535950,484.091675 132.319000,485.409546 132.160721,487.209045 
	C136.605698,487.209045 141.058716,487.209045 146.009521,487.209045 
z"/>
</svg>