<svg version="1.1" id="Layer_1" xmlns="http://www.w3.org/2000/svg" xmlns:xlink="http://www.w3.org/1999/xlink" x="0px" y="0px"
	 width="100%" viewBox="0 0 596 538" enable-background="new 0 0 596 538" xml:space="preserve">
<path fill="#FFFFFF" opacity="1.000000" stroke="none" 
	d="
M365.000000,539.000000 
	C243.360031,539.000000 122.220055,539.000000 1.040039,539.000000 
	C1.040039,359.732880 1.040039,180.465744 1.040039,1.099300 
	C199.556656,1.099300 398.113373,1.099300 596.835083,1.099300 
	C596.835083,180.333206 596.835083,359.666595 596.835083,539.000000 
	C519.799011,539.000000 442.649506,539.000000 365.000000,539.000000 
M579.006836,316.500000 
	C578.991150,282.174255 579.070129,247.847916 578.865662,213.523285 
	C578.832092,207.878845 578.183167,202.072922 576.724731,196.634995 
	C573.195801,183.476669 567.145020,171.624313 557.113586,161.985718 
	C554.577698,159.549133 553.072815,156.039444 551.368469,153.441010 
	C549.804138,153.045181 547.762451,152.922760 546.126892,152.044220 
	C540.104004,148.808975 533.992981,145.643875 528.397705,141.757584 
	C526.442261,140.399429 523.158691,139.970306 523.080994,135.683685 
	C522.952637,128.601807 522.506897,121.158585 520.205872,114.561440 
	C515.752319,101.793304 508.333618,90.655823 497.857788,81.699875 
	C484.332031,70.136513 469.292542,62.399246 451.092438,62.309231 
	C433.929749,62.224342 416.757477,62.003880 399.607697,62.488541 
	C393.436249,62.662945 388.555206,60.563629 383.656311,57.578407 
	C382.402252,56.814220 381.148285,56.048500 379.873138,55.320484 
	C367.893280,48.480831 356.022339,41.439522 343.893005,34.875805 
	C332.368805,28.639534 320.668549,22.632635 306.837891,23.955585 
	C304.195923,24.208300 301.491882,24.189644 298.845856,23.958973 
	C284.282257,22.689383 271.169464,27.219086 258.747040,34.133827 
	C246.831161,40.766628 234.970963,47.522289 223.347198,54.649483 
	C214.915924,59.819172 206.457611,63.160378 196.156464,62.541134 
	C182.873810,61.742657 169.496964,62.667801 156.178894,62.258430 
	C142.217377,61.829277 129.238708,64.711540 117.208626,71.777756 
	C101.026054,81.283043 88.633766,94.101089 82.290878,112.121544 
	C79.523689,119.983246 77.035324,127.898659 77.214409,136.409607 
	C77.240059,137.628616 76.399788,139.288757 75.419594,140.020218 
	C73.208344,141.670319 70.717278,142.983795 68.236679,144.228149 
	C55.605358,150.564407 44.408775,158.829208 36.483768,170.587097 
	C28.779516,182.017441 22.113918,194.328094 22.085871,208.563248 
	C21.920723,292.378876 21.952303,376.195404 22.249508,460.010437 
	C22.271948,466.338379 23.996151,473.025146 26.460508,478.903168 
	C31.482044,490.880615 38.889454,501.457489 48.396706,510.481079 
	C56.210110,517.897034 64.943214,522.135193 76.162727,522.122375 
	C226.299118,521.951477 376.435822,521.953796 526.572205,522.127869 
	C536.766174,522.139709 544.658997,518.274963 551.603394,511.532623 
	C557.119263,506.177216 561.831116,500.198975 566.505554,494.034637 
	C574.431152,483.582977 579.131104,472.703339 579.079346,459.471069 
	C578.894226,412.147980 579.006836,364.823792 579.006836,316.500000 
z"/>
<path fill="#040404" opacity="1.000000" stroke="none" 
	d="
M579.006836,317.000000 
	C579.006836,364.823792 578.894226,412.147980 579.079346,459.471069 
	C579.131104,472.703339 574.431152,483.582977 566.505554,494.034637 
	C561.831116,500.198975 557.119263,506.177216 551.603394,511.532623 
	C544.658997,518.274963 536.766174,522.139709 526.572205,522.127869 
	C376.435822,521.953796 226.299118,521.951477 76.162727,522.122375 
	C64.943214,522.135193 56.210110,517.897034 48.396706,510.481079 
	C38.889454,501.457489 31.482044,490.880615 26.460508,478.903168 
	C23.996151,473.025146 22.271948,466.338379 22.249508,460.010437 
	C21.952303,376.195404 21.920723,292.378876 22.085871,208.563248 
	C22.113918,194.328094 28.779516,182.017441 36.483768,170.587097 
	C44.408775,158.829208 55.605358,150.564407 68.236679,144.228149 
	C70.717278,142.983795 73.208344,141.670319 75.419594,140.020218 
	C76.399788,139.288757 77.240059,137.628616 77.214409,136.409607 
	C77.035324,127.898659 79.523689,119.983246 82.290878,112.121544 
	C88.633766,94.101089 101.026054,81.283043 117.208626,71.777756 
	C129.238708,64.711540 142.217377,61.829277 156.178894,62.258430 
	C169.496964,62.667801 182.873810,61.742657 196.156464,62.541134 
	C206.457611,63.160378 214.915924,59.819172 223.347198,54.649483 
	C234.970963,47.522289 246.831161,40.766628 258.747040,34.133827 
	C271.169464,27.219086 284.282257,22.689383 298.845856,23.958973 
	C301.491882,24.189644 304.195923,24.208300 306.837891,23.955585 
	C320.668549,22.632635 332.368805,28.639534 343.893005,34.875805 
	C356.022339,41.439522 367.893280,48.480831 379.873138,55.320484 
	C381.148285,56.048500 382.402252,56.814220 383.656311,57.578407 
	C388.555206,60.563629 393.436249,62.662945 399.607697,62.488541 
	C416.757477,62.003880 433.929749,62.224342 451.092438,62.309231 
	C469.292542,62.399246 484.332031,70.136513 497.857788,81.699875 
	C508.333618,90.655823 515.752319,101.793304 520.205872,114.561440 
	C522.506897,121.158585 522.952637,128.601807 523.080994,135.683685 
	C523.158691,139.970306 526.442261,140.399429 528.397705,141.757584 
	C533.992981,145.643875 540.104004,148.808975 546.126892,152.044220 
	C547.762451,152.922760 549.804138,153.045181 551.368469,153.441010 
	C553.072815,156.039444 554.577698,159.549133 557.113586,161.985718 
	C567.145020,171.624313 573.195801,183.476669 576.724731,196.634995 
	C578.183167,202.072922 578.832092,207.878845 578.865662,213.523285 
	C579.070129,247.847916 578.991150,282.174255 579.006836,317.000000 
M349.183746,326.738800 
	C351.897125,325.308289 354.673523,323.984650 357.312439,322.427856 
	C366.408875,317.061401 375.391785,311.500061 384.538147,306.221191 
	C401.674469,296.330902 418.929810,286.646759 436.069366,276.761993 
	C449.999115,268.728363 463.717682,260.319824 477.789032,252.546600 
	C481.264587,250.626678 482.381531,248.756516 482.369049,244.977371 
	C482.252167,209.656845 482.251007,174.335526 482.355072,139.014847 
	C482.416382,118.200050 464.946228,102.878059 445.841339,102.846008 
	C348.375671,102.682487 250.909561,102.785530 153.443604,102.802422 
	C152.116547,102.802650 150.722824,102.646484 149.472397,102.981712 
	C129.589539,108.312004 118.320976,120.969238 117.902718,140.718521 
	C117.158546,175.857178 117.661438,211.022964 117.795525,246.176834 
	C117.800957,247.600983 119.014420,249.604156 120.257454,250.349319 
	C132.225006,257.523376 144.303879,264.512695 156.382507,271.500244 
	C169.802780,279.263916 183.283600,286.923157 196.688187,294.713684 
	C214.610367,305.129730 232.460449,315.669891 250.389435,326.074127 
	C259.410858,331.309326 268.734894,336.047333 277.571198,341.571411 
	C290.680023,349.766479 304.425201,350.624451 318.057220,344.463806 
	C328.672577,339.666473 338.462219,333.042053 349.183746,326.738800 
M166.807755,431.251221 
	C137.458786,448.121368 108.109810,464.991486 78.327950,482.110474 
	C82.926971,484.557587 515.041504,485.299316 522.249390,482.918823 
	C519.129944,480.735504 516.711426,478.820526 514.088806,477.245239 
	C502.074341,470.028625 490.080719,462.771545 477.932373,455.785034 
	C461.838318,446.529388 445.534912,437.637329 429.456818,428.354614 
	C415.099823,420.065552 400.984436,411.358917 386.654755,403.021667 
	C374.624359,396.022186 362.501404,389.174408 350.276123,382.522797 
	C347.365387,380.939178 342.812836,378.558868 340.842651,379.699890 
	C330.548981,385.661560 319.134827,388.069672 307.884094,389.286530 
	C293.759155,390.814301 279.351166,389.166016 266.472839,382.239532 
	C260.078491,378.800415 254.958893,379.295746 249.457062,383.472382 
	C246.753937,385.524414 243.631531,387.031860 240.667938,388.731812 
	C216.237701,402.745270 191.800232,416.746063 166.807755,431.251221 
M60.810966,388.499878 
	C60.810966,406.926575 60.810966,425.353241 60.810966,444.951080 
	C113.381172,414.480927 165.084412,384.513306 217.466064,354.152496 
	C164.510605,323.751465 112.778015,294.052429 60.810963,264.218842 
	C60.810963,305.539886 60.810963,346.519897 60.810966,388.499878 
M539.312866,293.500214 
	C539.312866,284.068512 539.312866,274.636780 539.312866,264.804169 
	C487.347687,294.624786 435.901459,324.147552 383.637695,354.139496 
	C435.927734,384.414032 487.351868,414.187256 539.311279,444.270386 
	C539.311279,394.027618 539.311279,344.263947 539.312866,293.500214 
M528.151367,191.251434 
	C526.887085,190.098846 525.622742,188.946259 524.110229,187.567398 
	C524.110229,200.453369 524.110229,212.709717 524.110229,224.966064 
	C524.604492,225.173615 525.098816,225.381165 525.593079,225.588730 
	C529.134155,220.140137 532.754150,214.739929 536.150024,209.202316 
	C536.832886,208.088730 537.313354,206.099838 536.778503,205.119095 
	C534.292603,200.560715 531.416870,196.214874 528.151367,191.251434 
M67.131050,198.980133 
	C60.977654,207.275833 67.141685,216.613342 77.008423,224.098740 
	C77.008423,212.280045 77.008423,200.676147 77.008423,187.514404 
	C73.312859,191.847595 70.497665,195.148529 67.131050,198.980133 
z"/>
<path fill="#FFFFFF" opacity="1.000000" stroke="none" 
	d="
M348.901306,326.984192 
	C338.462219,333.042053 328.672577,339.666473 318.057220,344.463806 
	C304.425201,350.624451 290.680023,349.766479 277.571198,341.571411 
	C268.734894,336.047333 259.410858,331.309326 250.389435,326.074127 
	C232.460449,315.669891 214.610367,305.129730 196.688187,294.713684 
	C183.283600,286.923157 169.802780,279.263916 156.382507,271.500244 
	C144.303879,264.512695 132.225006,257.523376 120.257454,250.349319 
	C119.014420,249.604156 117.800957,247.600983 117.795525,246.176834 
	C117.661438,211.022964 117.158546,175.857178 117.902718,140.718521 
	C118.320976,120.969238 129.589539,108.312004 149.472397,102.981712 
	C150.722824,102.646484 152.116547,102.802650 153.443604,102.802422 
	C250.909561,102.785530 348.375671,102.682487 445.841339,102.846008 
	C464.946228,102.878059 482.416382,118.200050 482.355072,139.014847 
	C482.251007,174.335526 482.252167,209.656845 482.369049,244.977371 
	C482.381531,248.756516 481.264587,250.626678 477.789032,252.546600 
	C463.717682,260.319824 449.999115,268.728363 436.069366,276.761993 
	C418.929810,286.646759 401.674469,296.330902 384.538147,306.221191 
	C375.391785,311.500061 366.408875,317.061401 357.312439,322.427856 
	C354.673523,323.984650 351.897125,325.308289 348.901306,326.984192 
M168.522385,154.293900 
	C165.689453,154.292969 162.836136,154.505844 160.028595,154.238449 
	C156.285782,153.881973 155.100143,155.278839 155.185211,159.027161 
	C155.412033,169.020996 155.262970,179.023346 155.264023,189.022308 
	C155.264740,195.718857 155.265259,195.716934 162.250534,195.716888 
	C249.574799,195.716293 336.899048,195.717270 424.223328,195.713867 
	C429.555817,195.713669 434.888336,195.657211 440.220734,195.671005 
	C443.372833,195.679153 444.972198,194.602112 444.907532,191.017319 
	C444.715149,180.355240 444.704132,169.684830 444.911377,159.023300 
	C444.985016,155.235672 443.639923,154.195572 439.980896,154.220078 
	C422.318237,154.338394 404.653900,154.173523 386.990173,154.179443 
	C314.498779,154.203674 242.007385,154.253510 168.522385,154.293900 
M244.499847,256.674164 
	C280.140900,256.674164 315.781921,256.674133 351.422974,256.674164 
	C380.735291,256.674194 410.048218,256.578522 439.359222,256.775909 
	C443.837036,256.806030 445.114075,255.464127 444.906372,251.118927 
	C444.572784,244.140137 444.826263,237.133316 444.829498,230.138351 
	C444.831604,225.555450 444.829895,220.972549 444.829895,216.241989 
	C440.048981,216.241989 436.059509,216.241989 432.070007,216.241989 
	C341.801392,216.241653 251.532730,216.279984 161.264359,216.134628 
	C156.402344,216.126801 154.986801,217.471313 155.176010,222.277283 
	C155.542679,231.589432 155.592072,240.940903 155.156311,250.247208 
	C154.915863,255.382416 156.614395,256.735626 161.559509,256.703827 
	C188.871887,256.528137 216.186172,256.652557 244.499847,256.674164 
z"/>
<path fill="#FFFFFF" opacity="1.000000" stroke="none" 
	d="
M167.086349,431.000946 
	C191.800232,416.746063 216.237701,402.745270 240.667938,388.731812 
	C243.631531,387.031860 246.753937,385.524414 249.457062,383.472382 
	C254.958893,379.295746 260.078491,378.800415 266.472839,382.239532 
	C279.351166,389.166016 293.759155,390.814301 307.884094,389.286530 
	C319.134827,388.069672 330.548981,385.661560 340.842651,379.699890 
	C342.812836,378.558868 347.365387,380.939178 350.276123,382.522797 
	C362.501404,389.174408 374.624359,396.022186 386.654755,403.021667 
	C400.984436,411.358917 415.099823,420.065552 429.456818,428.354614 
	C445.534912,437.637329 461.838318,446.529388 477.932373,455.785034 
	C490.080719,462.771545 502.074341,470.028625 514.088806,477.245239 
	C516.711426,478.820526 519.129944,480.735504 522.249390,482.918823 
	C515.041504,485.299316 82.926971,484.557587 78.327950,482.110474 
	C108.109810,464.991486 137.458786,448.121368 167.086349,431.000946 
z"/>
<path fill="#FFFFFF" opacity="1.000000" stroke="none" 
	d="
M60.810966,387.999878 
	C60.810963,346.519897 60.810963,305.539886 60.810963,264.218842 
	C112.778015,294.052429 164.510605,323.751465 217.466064,354.152496 
	C165.084412,384.513306 113.381172,414.480927 60.810966,444.951080 
	C60.810966,425.353241 60.810966,406.926575 60.810966,387.999878 
z"/>
<path fill="#FFFFFF" opacity="1.000000" stroke="none" 
	d="
M539.312073,294.000244 
	C539.311279,344.263947 539.311279,394.027618 539.311279,444.270386 
	C487.351868,414.187256 435.927734,384.414032 383.637695,354.139496 
	C435.901459,324.147552 487.347687,294.624786 539.312866,264.804169 
	C539.312866,274.636780 539.312866,284.068512 539.312073,294.000244 
z"/>
<path fill="#FFFFFF" opacity="1.000000" stroke="none" 
	d="
M528.416016,191.522202 
	C531.416870,196.214874 534.292603,200.560715 536.778503,205.119095 
	C537.313354,206.099838 536.832886,208.088730 536.150024,209.202316 
	C532.754150,214.739929 529.134155,220.140137 525.593079,225.588730 
	C525.098816,225.381165 524.604492,225.173615 524.110229,224.966064 
	C524.110229,212.709717 524.110229,200.453369 524.110229,187.567398 
	C525.622742,188.946259 526.887085,190.098846 528.416016,191.522202 
z"/>
<path fill="#FFFFFF" opacity="1.000000" stroke="none" 
	d="
M67.406754,198.714798 
	C70.497665,195.148529 73.312859,191.847595 77.008423,187.514404 
	C77.008423,200.676147 77.008423,212.280045 77.008423,224.098740 
	C67.141685,216.613342 60.977654,207.275833 67.406754,198.714798 
z"/>
<path fill="#090909" opacity="1.000000" stroke="none" 
	d="
M169.019196,154.293915 
	C242.007385,154.253510 314.498779,154.203674 386.990173,154.179443 
	C404.653900,154.173523 422.318237,154.338394 439.980896,154.220078 
	C443.639923,154.195572 444.985016,155.235672 444.911377,159.023300 
	C444.704132,169.684830 444.715149,180.355240 444.907532,191.017319 
	C444.972198,194.602112 443.372833,195.679153 440.220734,195.671005 
	C434.888336,195.657211 429.555817,195.713669 424.223328,195.713867 
	C336.899048,195.717270 249.574799,195.716293 162.250534,195.716888 
	C155.265259,195.716934 155.264740,195.718857 155.264023,189.022308 
	C155.262970,179.023346 155.412033,169.020996 155.185211,159.027161 
	C155.100143,155.278839 156.285782,153.881973 160.028595,154.238449 
	C162.836136,154.505844 165.689453,154.292969 169.019196,154.293915 
z"/>
<path fill="#070707" opacity="1.000000" stroke="none" 
	d="
M243.999832,256.674133 
	C216.186172,256.652557 188.871887,256.528137 161.559509,256.703827 
	C156.614395,256.735626 154.915863,255.382416 155.156311,250.247208 
	C155.592072,240.940903 155.542679,231.589432 155.176010,222.277283 
	C154.986801,217.471313 156.402344,216.126801 161.264359,216.134628 
	C251.532730,216.279984 341.801392,216.241653 432.070007,216.241989 
	C436.059509,216.241989 440.048981,216.241989 444.829895,216.241989 
	C444.829895,220.972549 444.831604,225.555450 444.829498,230.138351 
	C444.826263,237.133316 444.572784,244.140137 444.906372,251.118927 
	C445.114075,255.464127 443.837036,256.806030 439.359222,256.775909 
	C410.048218,256.578522 380.735291,256.674194 351.422974,256.674164 
	C315.781921,256.674133 280.140900,256.674164 243.999832,256.674133 
z"/>
</svg>