<svg version="1.1" id="Layer_1" xmlns="http://www.w3.org/2000/svg" xmlns:xlink="http://www.w3.org/1999/xlink" x="0px" y="0px"
	 width="100%" viewBox="0 0 554 497" enable-background="new 0 0 554 497" xml:space="preserve">
<path fill="#FFFFFF" opacity="1.000000" stroke="none" 
	d="
M555.000000,173.000000 
	C555.000000,281.640930 555.000000,389.781891 555.000000,497.961426 
	C370.402985,497.961426 185.805954,497.961426 1.104464,497.961426 
	C1.104464,332.442444 1.104464,166.884781 1.104464,1.163563 
	C185.666550,1.163563 370.333252,1.163563 555.000000,1.163563 
	C555.000000,58.194000 555.000000,115.347000 555.000000,173.000000 
M79.513153,24.001244 
	C74.915871,24.381521 70.096619,24.001345 65.757996,25.267759 
	C41.012783,32.490711 29.114077,51.580967 21.273102,74.307953 
	C15.957467,89.715271 16.210243,105.670746 15.882548,121.655724 
	C15.690315,131.032852 22.824558,137.498169 31.459661,137.720047 
	C46.068932,138.095459 60.680191,138.393982 75.290825,138.715027 
	C76.869476,138.749725 78.449539,138.719696 80.150795,138.719696 
	C80.150795,140.731964 80.146461,142.051498 80.151413,143.371002 
	C80.520004,241.480423 80.878265,339.589905 81.316383,437.699036 
	C81.328529,440.418030 81.869385,443.241180 82.720612,445.832855 
	C88.508919,463.456299 108.830475,480.081573 129.181381,479.993683 
	C215.175308,479.622284 301.171844,479.745056 387.167053,479.906647 
	C399.642578,479.930084 410.554047,477.158600 420.482422,469.072083 
	C432.324432,459.426910 439.327332,447.403748 439.501099,432.408325 
	C439.952820,393.424011 439.652924,354.430939 439.652924,314.805695 
	C438.376953,315.895844 437.239594,316.745361 436.244171,317.737305 
	C427.898834,326.053345 419.787354,334.618958 411.166748,342.637787 
	C406.710114,346.783264 404.975037,351.131866 405.272675,357.224518 
	C405.776154,367.530243 405.360901,377.880859 405.333832,388.212585 
	C405.294922,403.044403 405.334167,417.877045 405.181885,432.707672 
	C405.121521,438.583527 402.107788,443.534424 398.452240,444.157532 
	C395.214508,444.709412 391.928223,445.200989 388.653534,445.273376 
	C371.705017,445.648102 354.752747,446.151001 337.802948,446.111664 
	C280.881683,445.979584 223.960617,445.687317 167.040222,445.337646 
	C153.042953,445.251678 139.045395,444.807831 125.054024,444.345306 
	C118.340828,444.123383 114.867516,440.119965 114.843544,433.235779 
	C114.504799,335.952606 114.166870,238.669403 113.820030,141.386246 
	C113.757050,123.720886 113.674599,106.055504 113.538452,88.390625 
	C113.526085,86.786652 113.141869,85.165833 112.779457,83.587471 
	C110.443916,73.415848 105.913887,64.593956 96.916374,58.264549 
	C98.354904,57.821976 99.594795,57.822346 100.834686,57.821922 
	C187.828003,57.792233 274.821350,57.738834 361.814575,57.810558 
	C365.697815,57.813763 369.682739,58.584549 373.445160,59.628876 
	C390.058319,64.240150 405.749634,82.174171 405.399628,104.439941 
	C404.985840,130.765427 405.312103,157.102539 405.317505,183.434616 
	C405.317780,184.823669 405.317535,186.212738 405.317535,188.890381 
	C407.407928,187.215164 408.581726,186.438736 409.559509,185.465454 
	C418.971802,176.096481 428.407257,166.749115 437.671661,157.235428 
	C438.889313,155.985016 439.827057,153.827194 439.806305,152.102722 
	C439.568726,132.324203 439.290619,112.542274 438.602112,92.775940 
	C438.440582,88.138885 437.171326,83.389580 435.602753,78.979660 
	C430.138367,63.617085 420.725555,50.929169 407.941956,40.892162 
	C394.934601,30.679466 380.797180,23.820551 363.495972,23.868198 
	C269.167419,24.127979 174.837784,23.996595 79.513153,24.001244 
M275.744446,385.785065 
	C278.313538,394.986847 286.168640,402.059631 298.995636,396.196075 
	C310.148010,391.097961 321.609131,386.676025 332.770020,381.595490 
	C349.290405,374.075195 365.833496,366.957947 379.004150,353.406586 
	C403.328003,328.379822 428.581329,304.257660 453.383636,279.694244 
	C468.125214,265.094635 482.722473,250.349319 497.453674,235.739151 
	C498.960052,234.245117 500.941376,233.229935 502.983856,231.794693 
	C496.557892,225.740433 491.228424,220.921326 486.126129,215.872604 
	C472.927917,202.812790 459.812469,189.669067 446.711090,176.511917 
	C444.799042,174.591736 443.403320,173.030472 440.709351,175.829865 
	C435.881836,180.846313 430.535583,185.359573 425.625427,190.301025 
	C387.891113,228.275543 350.184479,266.277710 312.568451,304.369232 
	C310.070435,306.898804 307.926117,310.013214 306.399536,313.227173 
	C298.313782,330.249969 290.299133,347.312012 282.647156,364.532593 
	C279.711090,371.140198 277.800415,378.203491 275.744446,385.785065 
M373.795044,183.928650 
	C372.393707,176.559830 366.590240,170.600983 360.174469,170.289612 
	C351.070129,169.847717 341.953766,169.302780 332.845703,169.355362 
	C308.414398,169.496429 283.984924,169.941055 259.554443,170.244812 
	C251.621384,170.343445 245.272461,175.223557 243.410858,182.732819 
	C241.561569,190.192429 244.806763,198.205933 252.705612,200.726837 
	C259.745331,202.973557 267.562103,203.517441 275.038544,203.532623 
	C302.145447,203.587677 329.254730,203.188400 356.360504,202.784653 
	C367.981964,202.611572 373.794495,196.402222 373.795044,183.928650 
M514.190186,218.792725 
	C520.301758,212.070511 526.600403,205.506927 532.471924,198.581253 
	C538.299316,191.707779 537.635742,176.681641 531.395874,170.286530 
	C522.611267,161.283386 513.731567,152.369980 504.757172,143.556015 
	C497.757385,136.681381 487.385498,134.453415 479.354065,139.813370 
	C470.641998,145.627625 463.048492,153.132385 455.122192,160.076828 
	C454.599213,160.535004 454.932281,162.923126 455.645325,163.691055 
	C462.413910,170.980743 469.222656,178.242767 476.268982,185.262665 
	C487.442474,196.394196 498.782288,207.359573 510.145477,218.297882 
	C510.928131,219.051239 512.489441,218.995682 514.190186,218.792725 
M166.169952,376.364532 
	C169.763321,381.014404 174.653961,382.044067 180.236801,381.837585 
	C185.468460,381.644012 189.132675,378.768463 192.527939,375.429901 
	C201.974319,366.141388 211.368774,356.796967 220.616669,347.311737 
	C223.223663,344.637787 226.068130,341.720428 227.382156,338.359009 
	C230.180237,331.201233 226.364059,322.702393 219.419724,318.384827 
	C214.650909,315.419861 205.420822,314.963348 199.563095,321.137146 
	C192.904831,328.154663 185.492249,334.456451 179.063583,340.457031 
	C174.123672,337.574280 169.920166,333.910858 165.074921,332.574768 
	C157.632538,330.522552 151.898041,334.990814 148.141129,340.962036 
	C144.651810,346.507935 144.711624,352.882935 149.038483,358.075775 
	C154.224686,364.299896 160.092636,369.955963 166.169952,376.364532 
M196.809219,208.318130 
	C204.697525,200.417999 212.823639,192.735809 220.359528,184.512726 
	C223.465515,181.123489 226.441010,176.838791 227.461945,172.488724 
	C229.176712,165.182495 225.037201,158.263489 218.864349,155.261673 
	C211.890778,151.870483 205.284424,152.945190 199.377518,158.579803 
	C192.472275,165.166779 185.641724,171.832047 178.856186,178.388535 
	C176.339935,176.373947 174.331573,174.652573 172.208344,173.086990 
	C165.375885,168.048950 157.565460,168.476746 151.591003,174.147339 
	C145.103180,180.305191 143.758667,188.459564 149.354599,195.333725 
	C155.155838,202.460068 161.607986,209.192871 168.532135,215.229904 
	C175.267334,221.102173 181.436218,221.214050 186.947479,216.954819 
	C190.213348,214.430862 193.197174,211.541962 196.809219,208.318130 
M184.259262,253.742279 
	C182.535049,255.758209 180.810837,257.774139 179.394669,259.429901 
	C175.810532,256.928497 173.119080,254.718781 170.132492,253.031403 
	C162.838593,248.910477 155.237564,250.583282 149.542984,257.288696 
	C144.988464,262.651672 144.626251,272.018097 149.505264,277.431000 
	C155.356567,283.922638 161.494125,290.232330 168.075836,295.969025 
	C175.304642,302.269714 181.865387,302.724091 188.020721,296.935913 
	C200.294601,285.394104 212.272934,273.505615 223.835815,261.253052 
	C230.094070,254.621506 229.083481,245.480255 222.682861,239.506989 
	C216.600021,233.830307 206.308044,233.097534 199.911514,239.681488 
	C195.200836,244.530182 189.838791,248.746063 184.259262,253.742279 
M276.500397,284.811981 
	C286.159698,284.847473 295.821350,284.772644 305.476929,284.980499 
	C308.700226,285.049896 311.045197,284.188934 313.317566,281.795624 
	C322.356598,272.275482 331.612152,262.961090 340.760437,253.544159 
	C341.500946,252.781876 342.035889,251.819855 343.131317,250.309631 
	C340.755737,250.309631 339.151184,250.291565 337.547119,250.312302 
	C311.958069,250.643173 286.369507,251.130707 260.779724,251.209183 
	C254.210022,251.229324 249.683075,253.463776 245.880096,258.819885 
	C239.800110,267.382935 244.459946,281.792542 254.754684,283.577026 
	C261.537476,284.752838 268.576477,284.450836 276.500397,284.811981 
z"/>
<path fill="#050505" opacity="1.000000" stroke="none" 
	d="
M80.010834,24.000500 
	C174.837784,23.996595 269.167419,24.127979 363.495972,23.868198 
	C380.797180,23.820551 394.934601,30.679466 407.941956,40.892162 
	C420.725555,50.929169 430.138367,63.617085 435.602753,78.979660 
	C437.171326,83.389580 438.440582,88.138885 438.602112,92.775940 
	C439.290619,112.542274 439.568726,132.324203 439.806305,152.102722 
	C439.827057,153.827194 438.889313,155.985016 437.671661,157.235428 
	C428.407257,166.749115 418.971802,176.096481 409.559509,185.465454 
	C408.581726,186.438736 407.407928,187.215164 405.317535,188.890381 
	C405.317535,186.212738 405.317780,184.823669 405.317505,183.434616 
	C405.312103,157.102539 404.985840,130.765427 405.399628,104.439941 
	C405.749634,82.174171 390.058319,64.240150 373.445160,59.628876 
	C369.682739,58.584549 365.697815,57.813763 361.814575,57.810558 
	C274.821350,57.738834 187.828003,57.792233 100.834686,57.821922 
	C99.594795,57.822346 98.354904,57.821976 96.916374,58.264549 
	C105.913887,64.593956 110.443916,73.415848 112.779457,83.587471 
	C113.141869,85.165833 113.526085,86.786652 113.538452,88.390625 
	C113.674599,106.055504 113.757050,123.720886 113.820030,141.386246 
	C114.166870,238.669403 114.504799,335.952606 114.843544,433.235779 
	C114.867516,440.119965 118.340828,444.123383 125.054024,444.345306 
	C139.045395,444.807831 153.042953,445.251678 167.040222,445.337646 
	C223.960617,445.687317 280.881683,445.979584 337.802948,446.111664 
	C354.752747,446.151001 371.705017,445.648102 388.653534,445.273376 
	C391.928223,445.200989 395.214508,444.709412 398.452240,444.157532 
	C402.107788,443.534424 405.121521,438.583527 405.181885,432.707672 
	C405.334167,417.877045 405.294922,403.044403 405.333832,388.212585 
	C405.360901,377.880859 405.776154,367.530243 405.272675,357.224518 
	C404.975037,351.131866 406.710114,346.783264 411.166748,342.637787 
	C419.787354,334.618958 427.898834,326.053345 436.244171,317.737305 
	C437.239594,316.745361 438.376953,315.895844 439.652924,314.805695 
	C439.652924,354.430939 439.952820,393.424011 439.501099,432.408325 
	C439.327332,447.403748 432.324432,459.426910 420.482422,469.072083 
	C410.554047,477.158600 399.642578,479.930084 387.167053,479.906647 
	C301.171844,479.745056 215.175308,479.622284 129.181381,479.993683 
	C108.830475,480.081573 88.508919,463.456299 82.720612,445.832855 
	C81.869385,443.241180 81.328529,440.418030 81.316383,437.699036 
	C80.878265,339.589905 80.520004,241.480423 80.151413,143.371002 
	C80.146461,142.051498 80.150795,140.731964 80.150795,138.719696 
	C78.449539,138.719696 76.869476,138.749725 75.290825,138.715027 
	C60.680191,138.393982 46.068932,138.095459 31.459661,137.720047 
	C22.824558,137.498169 15.690315,131.032852 15.882548,121.655724 
	C16.210243,105.670746 15.957467,89.715271 21.273102,74.307953 
	C29.114077,51.580967 41.012783,32.490711 65.757996,25.267759 
	C70.096619,24.001345 74.915871,24.381521 80.010834,24.000500 
z"/>
<path fill="#030303" opacity="1.000000" stroke="none" 
	d="
M275.583466,385.422119 
	C277.800415,378.203491 279.711090,371.140198 282.647156,364.532593 
	C290.299133,347.312012 298.313782,330.249969 306.399536,313.227173 
	C307.926117,310.013214 310.070435,306.898804 312.568451,304.369232 
	C350.184479,266.277710 387.891113,228.275543 425.625427,190.301025 
	C430.535583,185.359573 435.881836,180.846313 440.709351,175.829865 
	C443.403320,173.030472 444.799042,174.591736 446.711090,176.511917 
	C459.812469,189.669067 472.927917,202.812790 486.126129,215.872604 
	C491.228424,220.921326 496.557892,225.740433 502.983856,231.794693 
	C500.941376,233.229935 498.960052,234.245117 497.453674,235.739151 
	C482.722473,250.349319 468.125214,265.094635 453.383636,279.694244 
	C428.581329,304.257660 403.328003,328.379822 379.004150,353.406586 
	C365.833496,366.957947 349.290405,374.075195 332.770020,381.595490 
	C321.609131,386.676025 310.148010,391.097961 298.995636,396.196075 
	C286.168640,402.059631 278.313538,394.986847 275.583466,385.422119 
M321.719818,330.250854 
	C318.100922,338.332642 314.482056,346.414429 310.615295,355.049744 
	C313.037292,357.276825 315.382477,359.653076 317.981018,361.709076 
	C318.952271,362.477570 320.835602,363.186554 321.757233,362.755554 
	C331.034760,358.416962 340.198761,353.835632 350.720795,348.671783 
	C341.560364,340.201965 332.977600,332.266296 324.262390,324.208130 
	C323.590485,325.719543 322.749420,327.611481 321.719818,330.250854 
z"/>
<path fill="#070707" opacity="1.000000" stroke="none" 
	d="
M373.799988,184.357910 
	C373.794495,196.402222 367.981964,202.611572 356.360504,202.784653 
	C329.254730,203.188400 302.145447,203.587677 275.038544,203.532623 
	C267.562103,203.517441 259.745331,202.973557 252.705612,200.726837 
	C244.806763,198.205933 241.561569,190.192429 243.410858,182.732819 
	C245.272461,175.223557 251.621384,170.343445 259.554443,170.244812 
	C283.984924,169.941055 308.414398,169.496429 332.845703,169.355362 
	C341.953766,169.302780 351.070129,169.847717 360.174469,170.289612 
	C366.590240,170.600983 372.393707,176.559830 373.799988,184.357910 
z"/>
<path fill="#050505" opacity="1.000000" stroke="none" 
	d="
M513.939453,219.054520 
	C512.489441,218.995682 510.928131,219.051239 510.145477,218.297882 
	C498.782288,207.359573 487.442474,196.394196 476.268982,185.262665 
	C469.222656,178.242767 462.413910,170.980743 455.645325,163.691055 
	C454.932281,162.923126 454.599213,160.535004 455.122192,160.076828 
	C463.048492,153.132385 470.641998,145.627625 479.354065,139.813370 
	C487.385498,134.453415 497.757385,136.681381 504.757172,143.556015 
	C513.731567,152.369980 522.611267,161.283386 531.395874,170.286530 
	C537.635742,176.681641 538.299316,191.707779 532.471924,198.581253 
	C526.600403,205.506927 520.301758,212.070511 513.939453,219.054520 
z"/>
<path fill="#070707" opacity="1.000000" stroke="none" 
	d="
M165.917664,376.111298 
	C160.092636,369.955963 154.224686,364.299896 149.038483,358.075775 
	C144.711624,352.882935 144.651810,346.507935 148.141129,340.962036 
	C151.898041,334.990814 157.632538,330.522552 165.074921,332.574768 
	C169.920166,333.910858 174.123672,337.574280 179.063583,340.457031 
	C185.492249,334.456451 192.904831,328.154663 199.563095,321.137146 
	C205.420822,314.963348 214.650909,315.419861 219.419724,318.384827 
	C226.364059,322.702393 230.180237,331.201233 227.382156,338.359009 
	C226.068130,341.720428 223.223663,344.637787 220.616669,347.311737 
	C211.368774,356.796967 201.974319,366.141388 192.527939,375.429901 
	C189.132675,378.768463 185.468460,381.644012 180.236801,381.837585 
	C174.653961,382.044067 169.763321,381.014404 165.917664,376.111298 
z"/>
<path fill="#070707" opacity="1.000000" stroke="none" 
	d="
M196.558502,208.567627 
	C193.197174,211.541962 190.213348,214.430862 186.947479,216.954819 
	C181.436218,221.214050 175.267334,221.102173 168.532135,215.229904 
	C161.607986,209.192871 155.155838,202.460068 149.354599,195.333725 
	C143.758667,188.459564 145.103180,180.305191 151.591003,174.147339 
	C157.565460,168.476746 165.375885,168.048950 172.208344,173.086990 
	C174.331573,174.652573 176.339935,176.373947 178.856186,178.388535 
	C185.641724,171.832047 192.472275,165.166779 199.377518,158.579803 
	C205.284424,152.945190 211.890778,151.870483 218.864349,155.261673 
	C225.037201,158.263489 229.176712,165.182495 227.461945,172.488724 
	C226.441010,176.838791 223.465515,181.123489 220.359528,184.512726 
	C212.823639,192.735809 204.697525,200.417999 196.558502,208.567627 
z"/>
<path fill="#060606" opacity="1.000000" stroke="none" 
	d="
M184.513123,253.493103 
	C189.838791,248.746063 195.200836,244.530182 199.911514,239.681488 
	C206.308044,233.097534 216.600021,233.830307 222.682861,239.506989 
	C229.083481,245.480255 230.094070,254.621506 223.835815,261.253052 
	C212.272934,273.505615 200.294601,285.394104 188.020721,296.935913 
	C181.865387,302.724091 175.304642,302.269714 168.075836,295.969025 
	C161.494125,290.232330 155.356567,283.922638 149.505264,277.431000 
	C144.626251,272.018097 144.988464,262.651672 149.542984,257.288696 
	C155.237564,250.583282 162.838593,248.910477 170.132492,253.031403 
	C173.119080,254.718781 175.810532,256.928497 179.394669,259.429901 
	C180.810837,257.774139 182.535049,255.758209 184.513123,253.493103 
z"/>
<path fill="#080808" opacity="1.000000" stroke="none" 
	d="
M276.000549,284.811279 
	C268.576477,284.450836 261.537476,284.752838 254.754684,283.577026 
	C244.459946,281.792542 239.800110,267.382935 245.880096,258.819885 
	C249.683075,253.463776 254.210022,251.229324 260.779724,251.209183 
	C286.369507,251.130707 311.958069,250.643173 337.547119,250.312302 
	C339.151184,250.291565 340.755737,250.309631 343.131317,250.309631 
	C342.035889,251.819855 341.500946,252.781876 340.760437,253.544159 
	C331.612152,262.961090 322.356598,272.275482 313.317566,281.795624 
	C311.045197,284.188934 308.700226,285.049896 305.476929,284.980499 
	C295.821350,284.772644 286.159698,284.847473 276.000549,284.811279 
z"/>
<path fill="#FFFFFF" opacity="1.000000" stroke="none" 
	d="
M321.814087,329.877136 
	C322.749420,327.611481 323.590485,325.719543 324.262390,324.208130 
	C332.977600,332.266296 341.560364,340.201965 350.720795,348.671783 
	C340.198761,353.835632 331.034760,358.416962 321.757233,362.755554 
	C320.835602,363.186554 318.952271,362.477570 317.981018,361.709076 
	C315.382477,359.653076 313.037292,357.276825 310.615295,355.049744 
	C314.482056,346.414429 318.100922,338.332642 321.814087,329.877136 
z"/>
</svg>