<svg version="1.1" id="Layer_1" xmlns="http://www.w3.org/2000/svg" xmlns:xlink="http://www.w3.org/1999/xlink" x="0px" y="0px"
	 width="100%" viewBox="0 0 540 539" enable-background="new 0 0 540 539" xml:space="preserve">
<path fill="#FFFFFF" opacity="1.000000" stroke="none" 
	d="
M286.000000,540.000000 
	C190.688614,540.000000 95.877243,540.000000 1.032932,540.000000 
	C1.032932,360.396881 1.032932,180.793762 1.032932,1.095322 
	C180.894730,1.095322 360.789520,1.095322 540.842163,1.095322 
	C540.842163,180.666550 540.842163,360.333252 540.842163,540.000000 
	C456.127045,540.000000 371.313507,540.000000 286.000000,540.000000 
M221.472122,13.036599 
	C200.606964,11.407557 182.558472,18.463236 167.118362,31.903734 
	C149.185242,47.514370 140.311844,67.602234 140.283859,91.475266 
	C140.274765,99.234406 140.282425,106.993553 140.282425,115.159653 
	C115.633919,115.159653 91.493279,115.455353 67.363876,115.061966 
	C49.474293,114.770309 35.018047,121.209198 23.859385,135.015533 
	C17.229177,143.218918 12.988545,152.423462 13.016762,163.297028 
	C13.089407,191.292068 13.030691,219.287415 13.058092,247.282608 
	C13.060691,249.937836 12.815989,252.727371 13.510160,255.225586 
	C17.341782,269.014984 25.132332,280.107269 37.307018,287.746582 
	C45.325706,292.778107 54.207108,295.505798 63.763706,295.763611 
	C74.683685,296.058228 85.729713,295.472321 96.487976,296.957184 
	C108.464790,298.610229 114.676498,308.797913 114.289200,323.000732 
	C114.016602,332.997467 105.523460,343.161469 95.283386,344.166626 
	C85.072723,345.168854 74.713913,344.568512 64.461510,345.273621 
	C58.288380,345.698181 51.838013,346.335938 46.130669,348.505096 
	C27.917370,355.427216 12.505082,374.389740 12.905484,395.279877 
	C13.406747,421.432343 13.169744,447.603638 12.907379,473.763397 
	C12.817227,482.752106 14.444918,491.052399 19.158516,498.708160 
	C29.039295,514.756348 42.600559,524.902344 62.164825,524.978455 
	C89.659813,525.085449 117.157387,524.808350 144.650360,525.066895 
	C167.549896,525.282227 190.643234,504.439362 192.710785,480.227509 
	C193.627731,469.489594 193.409988,458.652344 193.638336,447.858734 
	C193.898956,435.540314 202.148224,425.560669 213.587631,423.836182 
	C226.428497,421.900421 237.710831,428.489716 241.123062,440.768280 
	C242.458755,445.574554 241.977936,450.888031 242.304672,455.971771 
	C242.960403,466.174194 242.432861,476.619873 244.486420,486.531555 
	C249.200317,509.283569 272.739349,526.432312 296.262115,525.288635 
	C321.863983,524.043762 347.581207,524.603943 373.233215,525.119568 
	C398.616760,525.629578 422.750397,503.079071 423.507874,475.613525 
	C424.220856,449.762299 423.660767,423.875977 423.660767,397.796112 
	C432.985870,397.796112 442.314087,398.058655 451.622528,397.741119 
	C470.678497,397.091034 487.328979,389.968597 501.001801,376.918182 
	C517.348389,361.315704 525.636780,342.373810 525.294800,319.102448 
	C524.992188,298.509796 517.710754,281.522797 504.081970,266.951508 
	C488.323730,250.103485 468.446167,242.390259 445.485138,242.368927 
	C438.366638,242.362305 431.248138,242.367874 423.671539,242.367874 
	C423.671539,240.330353 423.671783,238.704025 423.671539,237.077682 
	C423.668060,215.414642 423.706665,193.751419 423.622284,172.088699 
	C423.606934,168.145309 423.227478,164.188065 422.780060,160.264114 
	C419.873138,134.769516 396.200623,114.502434 371.306488,115.013618 
	C348.319916,115.485619 325.316620,115.143089 302.320709,115.158936 
	C300.208405,115.160393 298.096069,115.159126 295.736572,115.159126 
	C295.736572,107.110657 295.730377,99.639374 295.737823,92.168106 
	C295.755035,74.899139 291.389984,59.025860 280.838470,45.096367 
	C266.151337,25.707298 247.154190,14.192471 221.472122,13.036599 
z"/>
<path fill="#030303" opacity="1.000000" stroke="none" 
	d="
M221.965454,13.040451 
	C247.154190,14.192471 266.151337,25.707298 280.838470,45.096367 
	C291.389984,59.025860 295.755035,74.899139 295.737823,92.168106 
	C295.730377,99.639374 295.736572,107.110657 295.736572,115.159126 
	C298.096069,115.159126 300.208405,115.160393 302.320709,115.158936 
	C325.316620,115.143089 348.319916,115.485619 371.306488,115.013618 
	C396.200623,114.502434 419.873138,134.769516 422.780060,160.264114 
	C423.227478,164.188065 423.606934,168.145309 423.622284,172.088699 
	C423.706665,193.751419 423.668060,215.414642 423.671539,237.077682 
	C423.671783,238.704025 423.671539,240.330353 423.671539,242.367874 
	C431.248138,242.367874 438.366638,242.362305 445.485138,242.368927 
	C468.446167,242.390259 488.323730,250.103485 504.081970,266.951508 
	C517.710754,281.522797 524.992188,298.509796 525.294800,319.102448 
	C525.636780,342.373810 517.348389,361.315704 501.001801,376.918182 
	C487.328979,389.968597 470.678497,397.091034 451.622528,397.741119 
	C442.314087,398.058655 432.985870,397.796112 423.660767,397.796112 
	C423.660767,423.875977 424.220856,449.762299 423.507874,475.613525 
	C422.750397,503.079071 398.616760,525.629578 373.233215,525.119568 
	C347.581207,524.603943 321.863983,524.043762 296.262115,525.288635 
	C272.739349,526.432312 249.200317,509.283569 244.486420,486.531555 
	C242.432861,476.619873 242.960403,466.174194 242.304672,455.971771 
	C241.977936,450.888031 242.458755,445.574554 241.123062,440.768280 
	C237.710831,428.489716 226.428497,421.900421 213.587631,423.836182 
	C202.148224,425.560669 193.898956,435.540314 193.638336,447.858734 
	C193.409988,458.652344 193.627731,469.489594 192.710785,480.227509 
	C190.643234,504.439362 167.549896,525.282227 144.650360,525.066895 
	C117.157387,524.808350 89.659813,525.085449 62.164825,524.978455 
	C42.600559,524.902344 29.039295,514.756348 19.158516,498.708160 
	C14.444918,491.052399 12.817227,482.752106 12.907379,473.763397 
	C13.169744,447.603638 13.406747,421.432343 12.905484,395.279877 
	C12.505082,374.389740 27.917370,355.427216 46.130669,348.505096 
	C51.838013,346.335938 58.288380,345.698181 64.461510,345.273621 
	C74.713913,344.568512 85.072723,345.168854 95.283386,344.166626 
	C105.523460,343.161469 114.016602,332.997467 114.289200,323.000732 
	C114.676498,308.797913 108.464790,298.610229 96.487976,296.957184 
	C85.729713,295.472321 74.683685,296.058228 63.763706,295.763611 
	C54.207108,295.505798 45.325706,292.778107 37.307018,287.746582 
	C25.132332,280.107269 17.341782,269.014984 13.510160,255.225586 
	C12.815989,252.727371 13.060691,249.937836 13.058092,247.282608 
	C13.030691,219.287415 13.089407,191.292068 13.016762,163.297028 
	C12.988545,152.423462 17.229177,143.218918 23.859385,135.015533 
	C35.018047,121.209198 49.474293,114.770309 67.363876,115.061966 
	C91.493279,115.455353 115.633919,115.159653 140.282425,115.159653 
	C140.282425,106.993553 140.274765,99.234406 140.283859,91.475266 
	C140.311844,67.602234 149.185242,47.514370 167.118362,31.903734 
	C182.558472,18.463236 200.606964,11.407557 221.965454,13.040451 
M193.620087,111.424294 
	C193.252472,116.373756 193.525253,121.472771 192.410126,126.247665 
	C186.527420,151.436935 164.946808,168.165344 140.275085,167.915771 
	C117.280472,167.683151 94.282051,167.826187 71.285309,167.804291 
	C69.516617,167.802597 67.747917,167.804077 65.949432,167.804077 
	C65.949432,193.167328 65.949432,217.938293 65.949432,241.543182 
	C79.874062,242.472107 93.918755,241.615143 107.061226,244.656677 
	C135.007111,251.124130 154.258133,268.866608 164.001938,296.020569 
	C168.154572,307.593048 168.736832,319.712280 166.885223,332.024384 
	C163.865967,352.100739 154.182175,368.147278 138.625885,380.829559 
	C123.350754,393.282593 105.687576,398.482391 86.115891,397.867279 
	C79.361130,397.655029 72.594101,397.833527 66.001160,397.833527 
	C66.001160,423.283630 66.001160,448.052094 66.001160,472.572571 
	C90.833221,472.572571 115.395866,472.572571 140.282120,472.572571 
	C140.282120,466.710632 140.040146,460.888916 140.341049,455.095398 
	C140.752121,447.180664 140.877594,439.153900 142.356567,431.410278 
	C146.527634,409.571564 159.390656,393.059479 177.779633,381.779388 
	C193.191727,372.325287 210.511642,367.834900 229.154404,371.194672 
	C243.862305,373.845337 257.109436,379.533569 268.308838,389.288757 
	C287.308533,405.838409 296.474335,426.901367 295.764740,452.198792 
	C295.579315,458.809082 295.736816,465.429016 295.736816,472.418243 
	C320.826843,472.418243 345.380402,472.418243 369.992035,472.418243 
	C370.047638,472.252869 370.241028,471.945618 370.241333,471.638184 
	C370.264709,448.974792 370.220184,426.311157 370.323364,403.648193 
	C370.345947,398.693695 370.668823,393.716064 371.233856,388.792755 
	C373.869019,365.832428 396.512695,345.471375 419.659393,345.191620 
	C428.490326,345.084900 437.323975,345.100098 446.155457,345.170380 
	C454.374786,345.235779 461.133698,342.508392 466.778198,336.251434 
	C477.386292,324.492310 472.664948,303.079559 457.751953,297.913422 
	C453.355927,296.390594 448.422821,296.163849 443.703522,295.879608 
	C432.615356,295.211670 421.173248,296.405792 410.475677,294.080383 
	C386.315125,288.828339 369.944763,266.816162 370.227173,241.927643 
	C370.489990,218.767044 370.282745,195.601120 370.282410,172.437531 
	C370.282410,171.009308 370.282410,169.581085 370.282410,167.833740 
	C345.781281,167.833740 321.812134,167.882889 297.843567,167.789658 
	C293.389557,167.772339 288.885284,167.508041 284.493958,166.800598 
	C264.119385,163.518311 245.225708,143.971878 243.323441,123.425415 
	C242.269348,112.040054 242.550201,100.526573 242.340088,89.068810 
	C242.102676,76.119789 231.663742,65.862343 218.501404,65.783485 
	C204.536240,65.699814 193.966309,75.537056 193.729782,88.947693 
	C193.603424,96.111267 193.651001,103.277908 193.620087,111.424294 
z"/>
<path fill="#FFFFFF" opacity="1.000000" stroke="none" 
	d="
M193.620087,110.933731 
	C193.651001,103.277908 193.603424,96.111267 193.729782,88.947693 
	C193.966309,75.537056 204.536240,65.699814 218.501404,65.783485 
	C231.663742,65.862343 242.102676,76.119789 242.340088,89.068810 
	C242.550201,100.526573 242.269348,112.040054 243.323441,123.425415 
	C245.225708,143.971878 264.119385,163.518311 284.493958,166.800598 
	C288.885284,167.508041 293.389557,167.772339 297.843567,167.789658 
	C321.812134,167.882889 345.781281,167.833740 370.282410,167.833740 
	C370.282410,169.581085 370.282410,171.009308 370.282410,172.437531 
	C370.282745,195.601120 370.489990,218.767044 370.227173,241.927643 
	C369.944763,266.816162 386.315125,288.828339 410.475677,294.080383 
	C421.173248,296.405792 432.615356,295.211670 443.703522,295.879608 
	C448.422821,296.163849 453.355927,296.390594 457.751953,297.913422 
	C472.664948,303.079559 477.386292,324.492310 466.778198,336.251434 
	C461.133698,342.508392 454.374786,345.235779 446.155457,345.170380 
	C437.323975,345.100098 428.490326,345.084900 419.659393,345.191620 
	C396.512695,345.471375 373.869019,365.832428 371.233856,388.792755 
	C370.668823,393.716064 370.345947,398.693695 370.323364,403.648193 
	C370.220184,426.311157 370.264709,448.974792 370.241333,471.638184 
	C370.241028,471.945618 370.047638,472.252869 369.992035,472.418243 
	C345.380402,472.418243 320.826843,472.418243 295.736816,472.418243 
	C295.736816,465.429016 295.579315,458.809082 295.764740,452.198792 
	C296.474335,426.901367 287.308533,405.838409 268.308838,389.288757 
	C257.109436,379.533569 243.862305,373.845337 229.154404,371.194672 
	C210.511642,367.834900 193.191727,372.325287 177.779633,381.779388 
	C159.390656,393.059479 146.527634,409.571564 142.356567,431.410278 
	C140.877594,439.153900 140.752121,447.180664 140.341049,455.095398 
	C140.040146,460.888916 140.282120,466.710632 140.282120,472.572571 
	C115.395866,472.572571 90.833221,472.572571 66.001160,472.572571 
	C66.001160,448.052094 66.001160,423.283630 66.001160,397.833527 
	C72.594101,397.833527 79.361130,397.655029 86.115891,397.867279 
	C105.687576,398.482391 123.350754,393.282593 138.625885,380.829559 
	C154.182175,368.147278 163.865967,352.100739 166.885223,332.024384 
	C168.736832,319.712280 168.154572,307.593048 164.001938,296.020569 
	C154.258133,268.866608 135.007111,251.124130 107.061226,244.656677 
	C93.918755,241.615143 79.874062,242.472107 65.949432,241.543182 
	C65.949432,217.938293 65.949432,193.167328 65.949432,167.804077 
	C67.747917,167.804077 69.516617,167.802597 71.285309,167.804291 
	C94.282051,167.826187 117.280472,167.683151 140.275085,167.915771 
	C164.946808,168.165344 186.527420,151.436935 192.410126,126.247665 
	C193.525253,121.472771 193.252472,116.373756 193.620087,110.933731 
z"/>
</svg>