<svg version="1.1" id="Layer_1" xmlns="http://www.w3.org/2000/svg" xmlns:xlink="http://www.w3.org/1999/xlink" x="0px" y="0px"
	 width="100%" viewBox="0 0 525 455" enable-background="new 0 0 525 455" xml:space="preserve">
<path fill="#FFFFFF" opacity="1.000000" stroke="none" 
	d="
M322.000000,456.000000 
	C214.666687,456.000000 107.833382,456.000000 1.000057,456.000000 
	C1.000038,304.333405 1.000038,152.666794 1.000019,1.000139 
	C175.999893,1.000093 350.999786,1.000093 525.999756,1.000046 
	C525.999878,152.666519 525.999878,304.333038 525.999939,455.999786 
	C458.166656,456.000000 390.333344,456.000000 322.000000,456.000000 
M360.050964,401.636475 
	C375.720215,396.329681 389.512665,388.233765 401.202545,376.227539 
	C416.986267,360.016693 426.086334,340.807281 427.477966,318.473602 
	C428.533020,301.540924 427.844238,284.495087 427.793182,267.500031 
	C427.770325,259.902039 421.787292,251.842789 414.643616,249.275406 
	C402.313416,244.844055 388.447479,254.510849 388.153809,268.108856 
	C387.855255,281.932617 388.334717,295.775116 387.935364,309.593872 
	C387.766266,315.443817 386.891479,321.457794 385.187592,327.046692 
	C378.128967,350.199707 357.643158,365.157715 333.535950,365.174652 
	C268.717133,365.220184 203.898254,365.265198 139.079575,365.177887 
	C131.609207,365.167816 125.185066,367.100952 119.570969,372.104034 
	C109.580650,381.006927 99.459450,389.763123 89.377258,398.562653 
	C85.630127,401.833008 81.299767,403.373474 76.322105,402.506897 
	C65.615883,400.643036 60.681461,394.768677 60.673893,383.381653 
	C60.624710,309.398071 60.530468,235.414154 60.704845,161.430939 
	C60.775646,131.391495 82.199432,105.476837 116.998215,105.595245 
	C167.986374,105.768738 218.975586,105.655586 269.964294,105.600449 
	C272.730896,105.597458 275.608551,105.386490 278.242218,104.615463 
	C286.273895,102.264122 291.233215,96.508629 292.523560,88.525726 
	C293.730774,81.057190 291.930206,73.614334 284.653961,69.832184 
	C279.882629,67.352081 274.150513,65.509483 268.835205,65.475182 
	C219.014923,65.153656 169.191742,65.285934 119.369400,65.283676 
	C107.249146,65.283127 95.363365,66.920433 83.936989,71.006416 
	C65.455177,77.615364 50.070042,88.825470 38.656345,104.667274 
	C28.221954,119.149818 21.175825,135.441864 21.147112,153.659332 
	C21.020788,233.806641 21.201769,313.954468 21.300520,394.102051 
	C21.302116,395.397736 21.589727,396.712006 21.882986,397.985565 
	C25.882627,415.355011 35.828087,428.109344 51.819752,435.974792 
	C56.410278,438.232635 61.172638,441.007172 66.079926,441.560425 
	C74.303574,442.487579 82.706947,441.840851 91.034439,441.803162 
	C92.181068,441.797974 93.437111,441.735962 94.455521,441.281372 
	C108.733955,434.907623 120.755653,425.328979 131.686111,414.367279 
	C138.580429,407.453247 146.227173,404.544128 156.298218,404.624847 
	C214.281601,405.089783 272.271057,405.027893 330.256683,404.758972 
	C339.919769,404.714172 349.574097,402.776306 360.050964,401.636475 
M278.221924,157.741150 
	C271.529846,165.018036 264.569244,172.068069 258.194092,179.612747 
	C235.620132,206.327881 224.604355,237.370682 224.340729,272.265686 
	C224.255234,283.580200 233.423904,292.878845 244.744492,292.625885 
	C252.148056,292.460480 259.576996,291.783203 266.917877,290.776245 
	C287.150360,288.000977 305.961090,281.347290 323.193024,270.132965 
	C337.005005,261.144257 348.636047,249.802353 360.129395,238.176331 
	C371.773010,226.398239 383.907806,215.106750 395.600494,203.375885 
	C412.445709,186.475693 429.045563,169.331268 445.826294,152.366409 
	C459.070190,138.977158 472.799500,126.046280 485.620239,112.267067 
	C496.003998,101.106964 503.977173,88.450333 502.047516,71.986809 
	C501.758362,69.519890 502.162354,66.977577 501.957001,64.494003 
	C501.006775,53.001785 496.819550,42.667881 489.147003,34.182137 
	C477.886261,21.727917 464.174805,14.590335 446.661987,15.870830 
	C437.151733,16.566193 427.310120,14.837132 418.882629,20.976845 
	C413.440399,24.941702 407.659515,28.600409 402.853516,33.247574 
	C392.076538,43.668396 381.911133,54.718235 371.312531,65.327950 
	C361.179840,75.471207 350.722351,85.289734 340.577026,95.420624 
	C330.737946,105.245728 321.206390,115.378731 311.371277,125.207939 
	C300.587280,135.985489 289.610535,146.570175 278.221924,157.741150 
M189.411926,281.815033 
	C196.561371,269.031738 187.196518,254.501083 174.053192,253.249619 
	C167.477051,252.623474 160.840103,252.342560 154.233887,252.387100 
	C140.735092,252.478073 127.237221,252.846146 113.741531,253.198181 
	C107.217896,253.368347 98.510468,259.927155 96.333237,266.084686 
	C91.933189,278.528717 101.916634,292.643066 115.276253,292.698334 
	C133.740738,292.774689 152.206345,292.806702 170.670258,292.679535 
	C178.530304,292.625397 184.969879,289.600647 189.411926,281.815033 
M173.016525,217.725967 
	C185.246841,215.678146 192.603714,206.972107 191.691010,195.547684 
	C190.916260,185.850021 181.271896,177.777771 170.040054,177.963654 
	C152.049118,178.261383 134.049347,178.112198 116.054054,178.013931 
	C108.831779,177.974503 103.482666,181.358688 99.135468,186.659348 
	C94.189827,192.689682 94.086288,199.434158 97.392586,206.111206 
	C100.956032,213.307587 106.910248,217.610596 115.122818,217.677750 
	C134.117050,217.833054 153.113434,217.727692 173.016525,217.725967 
z"/>
<path fill="#040404" opacity="1.000000" stroke="none" 
	d="
M359.641724,401.674835 
	C349.574097,402.776306 339.919769,404.714172 330.256683,404.758972 
	C272.271057,405.027893 214.281601,405.089783 156.298218,404.624847 
	C146.227173,404.544128 138.580429,407.453247 131.686111,414.367279 
	C120.755653,425.328979 108.733955,434.907623 94.455521,441.281372 
	C93.437111,441.735962 92.181068,441.797974 91.034439,441.803162 
	C82.706947,441.840851 74.303574,442.487579 66.079926,441.560425 
	C61.172638,441.007172 56.410278,438.232635 51.819752,435.974792 
	C35.828087,428.109344 25.882627,415.355011 21.882986,397.985565 
	C21.589727,396.712006 21.302116,395.397736 21.300520,394.102051 
	C21.201769,313.954468 21.020788,233.806641 21.147112,153.659332 
	C21.175825,135.441864 28.221954,119.149818 38.656345,104.667274 
	C50.070042,88.825470 65.455177,77.615364 83.936989,71.006416 
	C95.363365,66.920433 107.249146,65.283127 119.369400,65.283676 
	C169.191742,65.285934 219.014923,65.153656 268.835205,65.475182 
	C274.150513,65.509483 279.882629,67.352081 284.653961,69.832184 
	C291.930206,73.614334 293.730774,81.057190 292.523560,88.525726 
	C291.233215,96.508629 286.273895,102.264122 278.242218,104.615463 
	C275.608551,105.386490 272.730896,105.597458 269.964294,105.600449 
	C218.975586,105.655586 167.986374,105.768738 116.998215,105.595245 
	C82.199432,105.476837 60.775646,131.391495 60.704845,161.430939 
	C60.530468,235.414154 60.624710,309.398071 60.673893,383.381653 
	C60.681461,394.768677 65.615883,400.643036 76.322105,402.506897 
	C81.299767,403.373474 85.630127,401.833008 89.377258,398.562653 
	C99.459450,389.763123 109.580650,381.006927 119.570969,372.104034 
	C125.185066,367.100952 131.609207,365.167816 139.079575,365.177887 
	C203.898254,365.265198 268.717133,365.220184 333.535950,365.174652 
	C357.643158,365.157715 378.128967,350.199707 385.187592,327.046692 
	C386.891479,321.457794 387.766266,315.443817 387.935364,309.593872 
	C388.334717,295.775116 387.855255,281.932617 388.153809,268.108856 
	C388.447479,254.510849 402.313416,244.844055 414.643616,249.275406 
	C421.787292,251.842789 427.770325,259.902039 427.793182,267.500031 
	C427.844238,284.495087 428.533020,301.540924 427.477966,318.473602 
	C426.086334,340.807281 416.986267,360.016693 401.202545,376.227539 
	C389.512665,388.233765 375.720215,396.329681 359.641724,401.674835 
z"/>
<path fill="#040404" opacity="1.000000" stroke="none" 
	d="
M278.469849,157.490021 
	C289.610535,146.570175 300.587280,135.985489 311.371277,125.207939 
	C321.206390,115.378731 330.737946,105.245728 340.577026,95.420624 
	C350.722351,85.289734 361.179840,75.471207 371.312531,65.327950 
	C381.911133,54.718235 392.076538,43.668396 402.853516,33.247574 
	C407.659515,28.600409 413.440399,24.941702 418.882629,20.976845 
	C427.310120,14.837132 437.151733,16.566193 446.661987,15.870830 
	C464.174805,14.590335 477.886261,21.727917 489.147003,34.182137 
	C496.819550,42.667881 501.006775,53.001785 501.957001,64.494003 
	C502.162354,66.977577 501.758362,69.519890 502.047516,71.986809 
	C503.977173,88.450333 496.003998,101.106964 485.620239,112.267067 
	C472.799500,126.046280 459.070190,138.977158 445.826294,152.366409 
	C429.045563,169.331268 412.445709,186.475693 395.600494,203.375885 
	C383.907806,215.106750 371.773010,226.398239 360.129395,238.176331 
	C348.636047,249.802353 337.005005,261.144257 323.193024,270.132965 
	C305.961090,281.347290 287.150360,288.000977 266.917877,290.776245 
	C259.576996,291.783203 252.148056,292.460480 244.744492,292.625885 
	C233.423904,292.878845 224.255234,283.580200 224.340729,272.265686 
	C224.604355,237.370682 235.620132,206.327881 258.194092,179.612747 
	C264.569244,172.068069 271.529846,165.018036 278.469849,157.490021 
M413.845306,78.341873 
	C397.629211,94.747414 381.445709,111.185341 365.189453,127.550972 
	C340.186951,152.721695 314.931366,177.645111 290.187744,203.067215 
	C277.567017,216.034012 271.161560,232.468872 266.747833,249.719299 
	C267.438202,250.003143 267.762207,250.275696 268.008514,250.217789 
	C285.811646,246.031784 302.257324,239.023605 315.614746,226.166061 
	C326.747040,215.450333 337.553650,204.395859 348.484314,193.471191 
	C367.316528,174.649368 386.131348,155.810120 404.956573,136.981354 
	C422.343811,119.590889 439.778503,102.247566 457.096924,84.788910 
	C461.978333,79.867950 464.423096,73.835014 462.641693,66.879662 
	C459.491028,54.577850 443.857819,49.475239 432.638916,59.698078 
	C426.296478,65.477341 420.427673,71.776329 413.845306,78.341873 
z"/>
<path fill="#060606" opacity="1.000000" stroke="none" 
	d="
M189.187943,282.122864 
	C184.969879,289.600647 178.530304,292.625397 170.670258,292.679535 
	C152.206345,292.806702 133.740738,292.774689 115.276253,292.698334 
	C101.916634,292.643066 91.933189,278.528717 96.333237,266.084686 
	C98.510468,259.927155 107.217896,253.368347 113.741531,253.198181 
	C127.237221,252.846146 140.735092,252.478073 154.233887,252.387100 
	C160.840103,252.342560 167.477051,252.623474 174.053192,253.249619 
	C187.196518,254.501083 196.561371,269.031738 189.187943,282.122864 
z"/>
<path fill="#050505" opacity="1.000000" stroke="none" 
	d="
M172.562744,217.726990 
	C153.113434,217.727692 134.117050,217.833054 115.122818,217.677750 
	C106.910248,217.610596 100.956032,213.307587 97.392586,206.111206 
	C94.086288,199.434158 94.189827,192.689682 99.135468,186.659348 
	C103.482666,181.358688 108.831779,177.974503 116.054054,178.013931 
	C134.049347,178.112198 152.049118,178.261383 170.040054,177.963654 
	C181.271896,177.777771 190.916260,185.850021 191.691010,195.547684 
	C192.603714,206.972107 185.246841,215.678146 172.562744,217.726990 
z"/>
<path fill="#FFFFFF" opacity="1.000000" stroke="none" 
	d="
M414.095398,78.091553 
	C420.427673,71.776329 426.296478,65.477341 432.638916,59.698078 
	C443.857819,49.475239 459.491028,54.577850 462.641693,66.879662 
	C464.423096,73.835014 461.978333,79.867950 457.096924,84.788910 
	C439.778503,102.247566 422.343811,119.590889 404.956573,136.981354 
	C386.131348,155.810120 367.316528,174.649368 348.484314,193.471191 
	C337.553650,204.395859 326.747040,215.450333 315.614746,226.166061 
	C302.257324,239.023605 285.811646,246.031784 268.008514,250.217789 
	C267.762207,250.275696 267.438202,250.003143 266.747833,249.719299 
	C271.161560,232.468872 277.567017,216.034012 290.187744,203.067215 
	C314.931366,177.645111 340.186951,152.721695 365.189453,127.550972 
	C381.445709,111.185341 397.629211,94.747414 414.095398,78.091553 
z"/>
</svg>